<svg aria-hidden="true" focusable="false"  xmlns="http://www.w3.org/2000/svg" xmlns:xlink="http://www.w3.org/1999/xlink" width="72" height="72" viewBox="0 0 72 72">
  <defs>
    <clipPath id="clip-Icon_linkedin">
      <rect width="72" height="72"/>
    </clipPath>
  </defs>
  <g id="Icon_linkedin" clip-path="url(#clip-Icon_linkedin)">
    <rect width="72" height="72" fill="#f2f2f2"/>
    <g   transform="translate(771.777 -49.729)">
      <path id="Path_156" data-name="Path 156" d="M-572.1,242.76a49.414,49.414,0,0,1,3.51-3.617,20.626,20.626,0,0,1,11.919-5.546,16.229,16.229,0,0,1,17.585,12.858,18.1,18.1,0,0,1,.327,3.583q0,16.112.017,32.224c0,.643-.184.762-.782.759q-7.277-.037-14.555,0c-.6,0-.782-.119-.78-.76.024-9.987.012-19.974.027-29.961a3.643,3.643,0,0,0-.406-1.691c-1.866-3.723-4.723-4.628-8.381-2.623a28.8,28.8,0,0,0-6.606,5.659,6.751,6.751,0,0,0-1.922,5.234c.122,7.8.041,15.612.063,23.418,0,.606-.17.726-.744.724q-7.308-.036-14.616,0c-.526,0-.718-.091-.717-.682q.028-24.061,0-48.122c0-.552.13-.708.7-.7q7.369.035,14.738,0c.51,0,.642.136.638.642C-572.108,237.021-572.1,239.89-572.1,242.76Z" transform="translate(-161.155 -161.322)"/>
      <path id="Path_157" data-name="Path 157" d="M-755.673,258.265q0,11.985,0,23.97c0,.772,0,.772-.8.772-4.872,0-9.744-.008-14.616.011-.516,0-.691-.1-.691-.662q.026-24.092,0-48.184c0-.563.175-.663.691-.661q7.339.028,14.677,0c.573,0,.752.117.75.725Q-755.691,246.249-755.673,258.265Z" transform="translate(0 -161.322)"/>
      <path id="Path_158" data-name="Path 158" d="M-763.748,49.7a7.86,7.86,0,0,1,7.844,7.851,7.861,7.861,0,0,1-7.883,7.875,7.866,7.866,0,0,1-7.847-7.852A7.868,7.868,0,0,1-763.748,49.7Z" transform="translate(-0.126)"/>
    </g>
  </g>
</svg>
