<svg xmlns="http://www.w3.org/2000/svg" viewBox="0 0 16 16" width="26" height="26" >
<path d="M14 1h-.5a.5.5 0 0 0-1 0h-4a.5.5 0 0 0-1 0h-4a.5.5 0 0 0-1 0H2a2 2 0 0 0-2 2v11a2 2 0 0 0 2 2h12a2 2 0 0 0 2-2V3a2 2 0 0 0-2-2ZM1 3a1 1 0 0 1 1-1h.5v1a.5.5 0 0 0 1 0V2h4v1a.5.5 0 0 0 1 0V2h4v1a.5.5 0 0 0 1 0V2h.5a1 1 0 0 1 1 1v1.5H1Zm14 11a1 1 0 0 1-1 1H2a1 1 0 0 1-1-1V5.5h14Z" fill="currentColor" />
<path d="M8 14a4 4 0 1 0-4-4 4 4 0 0 0 4 4Zm0-7a3 3 0 1 1-3 3 3 3 0 0 1 3-3Z" fill="currentColor" />
<path d="M8 11h1a.5.5 0 0 0 0-1h-.5V8.5a.5.5 0 0 0-1 0v2a.5.5 0 0 0 .5.5Z" fill="currentColor" />
</svg>
