<?xml version="1.0" encoding="UTF-8"?>
<svg xmlns="http://www.w3.org/2000/svg" class="visually-hidden" hidden>
    <clipPath id="curly-brace-down-large" clipPathUnits="objectBoundingBox">
        <path
            d="M1,0.004 H0.001 v0.283 C0.001,0.563,0.071,0.718,0.157,0.718 h0.214 c0.029,0,0.073,0.023,0.083,0.285 h0.094 C0.558,0.75,0.6,0.722,0.629,0.718 h0.216 c0.087,0,0.156,-0.155,0.156,-0.433">
        </path>
    </clipPath>

    <clipPath id="greater-than-open-tiny" clipPathUnits="objectBoundingBox">
        <path d="M1,0.999 V0 L0,0.495 L1,1"></path>
    </clipPath>
    <clipPath id="greater-than-close-tiny" clipPathUnits="objectBoundingBox">
        <path d="M0,0 V1 L1,0.505,0,0"></path>
    </clipPath>
    <clipPath id="curly-brace-open-tiny" clipPathUnits="objectBoundingBox">
        <path
            d="M1,0 C0.634,0,0.407,0.07,0.407,0.158 L0.407,0.373 C0.407,0.403,0.375,0.447,0,0.457 L0,0.551 C0.375,0.561,0.407,0.605,0.407,0.636 L0.407,0.85 C0.407,0.938,0.634,1,1,1 L1,0">
        </path>
    </clipPath>
    <clipPath id="curly-brace-close-tiny" clipPathUnits="objectBoundingBox">
        <path
            d="M0.015,0.004 C0.401,0.004,0.619,0.074,0.619,0.16 v0.214 c0,0.029,0.034,0.073,0.396,0.083 v0.094 c-0.361,0.01,-0.396,0.054,-0.396,0.083 v0.214 c0,0.086,-0.219,0.156,-0.603,0.156 V0.004">
        </path>
    </clipPath>
    <clipPath id="parenthesis-open-tiny" clipPathUnits="objectBoundingBox">
        <path d="M1,1 V0.001 S0,0.169,0,0.496 c0,0.327,1,0.505,1,0.505"></path>
    </clipPath>
    <clipPath id="parenthesis-close-tiny" clipPathUnits="objectBoundingBox">
        <path d="M0.026,0.001 v1 S1,0.833,1,0.506 C1,0.18,0.026,0.001,0.026,0.001"></path>
    </clipPath>

    <clipPath id="curly-brace-right-small" clipPathUnits="objectBoundingBox">
        <path
            d="M0,1 V0.004 h0.806 C0.881,0.004,0.923,0.074,0.923,0.16 v0.214 c0,0.029,0.007,0.073,0.077,0.083 v0.094 c-0.07,0.01,-0.077,0.054,-0.077,0.083 v0.214 c0,0.086,-0.042,0.156,-0.117,0.156 H0">
        </path>
    </clipPath>
    <clipPath id="greater-than-right-small" clipPathUnits="objectBoundingBox">
        <path
            d="M0.873,0.005 C0.287,0,-0.003,0,0,0.006 C0.006,0.015,0,0.244,0,0.506 v0.494 l0.873,0.002 L1,0.508,0.873,0.005">
        </path>
    </clipPath>
    <clipPath id="parenthesis-right-small" clipPathUnits="objectBoundingBox">
        <path
            d="M0.873,0.005 C0.287,0,-0.003,0,0,0.006 C0.006,0.015,0,0.244,0,0.506 v0.494 l0.873,0.002 s0.127,-0.167,0.127,-0.493 c0,-0.325,-0.127,-0.503,-0.127,-0.503">
        </path>
    </clipPath>

    <clipPath id="parenthesis-down-small" clipPathUnits="objectBoundingBox">
        <path
            d="M0.998,0.843 c0.004,-0.566,0.003,-0.847,-0.003,-0.843 c-0.009,0.006,-0.238,0,-0.499,0 H0.004 L0,0.843 s0.168,0.157,0.494,0.157 C0.818,1,0.998,0.843,0.998,0.843">
        </path>
    </clipPath>
    <clipPath id="greater-than-down-small" clipPathUnits="objectBoundingBox">
        <path
            d="M0.998,0.873 c0.006,-0.586,0.005,-0.877,-0.001,-0.873 c-0.009,0.006,-0.238,0,-0.5,0 H0.004 L0.002,0.873 l0.493,0.127,0.503,-0.127">
        </path>
    </clipPath>
    <clipPath id="curly-brace-down-small" clipPathUnits="objectBoundingBox">
        <path
            d="M0.003,0 h1 v0.806 c0,0.075,-0.07,0.117,-0.156,0.117 h-0.214 c-0.029,0,-0.073,0.006,-0.084,0.077 h-0.094 c-0.01,-0.07,-0.054,-0.077,-0.083,-0.077 H0.16 c-0.086,0,-0.156,-0.042,-0.156,-0.117 V0">
        </path>
    </clipPath>

    <clipPath id="parenthesis-down-tiny" clipPathUnits="objectBoundingBox">
        <path d="M1,0.175 V0 H0 v0.175 s0.169,0.825,0.495,0.825 C0.82,1,1,0.175,1,0.175"></path>
    </clipPath>
    <clipPath id="greater-than-down-tiny" clipPathUnits="objectBoundingBox">
        <path d="M1,0.175 V0 H0 v0.175 l0.495,0.825 L1,0.175"></path>
    </clipPath>
    <clipPath id="curly-brace-down-tiny" clipPathUnits="objectBoundingBox">
        <path
            d="M1,0 c0,0.392,-0.07,0.597,-0.157,0.597 h-0.214 c-0.029,0,-0.073,0.033,-0.084,0.403 h-0.094 C0.442,0.63,0.398,0.595,0.369,0.595 H0.156 C0.069,0.597,0,0.392,0,0 h1">
        </path>
    </clipPath>

    <clipPath id="curly-braces-block-bg" clipPathUnits="objectBoundingBox">
        <path
            d="M0.5,0.004 h0.403 C0.941,0.004,0.962,0.074,0.962,0.16 v0.223 l0,0.002 v0.002 l0,0.003 v0.002 l0,0.002,0.001,0.005,0,0.002 c0.003,0.024,0.012,0.049,0.037,0.056 v0.094 c-0.025,0.007,-0.034,0.031,-0.037,0.054 l0,0.002,0,0.004,0,0.002,0,0.002,0,0.002 v0.002 l0,0.002 v0.003 l0,0.001 V0.848 c0,0.086,-0.021,0.156,-0.059,0.156 H0.097 C0.06,1,0.038,0.934,0.038,0.848 v-0.223 l0,-0.002 v-0.001 l0,-0.002 v-0.002 l0,-0.002 v-0.001 l0,-0.002 v-0.002 c0,-0.001,0,-0.003,-0.001,-0.004 l0,-0.002 c-0.003,-0.024,-0.012,-0.047,-0.037,-0.054 v-0.094 c0.025,-0.008,0.034,-0.032,0.037,-0.056 v-0.002 l0.001,-0.005 v-0.002 l0,-0.002,0,-0.002 V0.384 l0,-0.001 V0.16 C0.038,0.074,0.06,0.004,0.097,0.004 H0.5">
        </path>
    </clipPath>
    <clipPath id="greater-than-block-bg" clipPathUnits="objectBoundingBox">
        <path d="M0.501,0 l0.436,0.001 L1,0.505 l-0.063,0.495,-0.437,-0.002,-0.437,0.002 L0,0.505,0.063,0.001"></path>
    </clipPath>
    <clipPath id="parentheses-block-bg" clipPathUnits="objectBoundingBox">
        <path
            d="M0.5,0.002 L0.937,0.001 l0.001,0.001,0.001,0.002,0.001,0.002,0.001,0.002,0.001,0.003,0.001,0.003,0.001,0.004 C0.957,0.07,1,0.239,1,0.506 c0,0.265,-0.042,0.426,-0.057,0.477 l-0.001,0.004,-0.001,0.002,-0.001,0.003,-0.001,0.003,-0.001,0.002,-0.001,0.003,-0.001,0.002 h0 l-0.437,-0.001,-0.437,0.002,-0.001,-0.001,0,-0.001,-0.001,-0.003,-0.001,-0.002,-0.001,-0.003,-0.001,-0.003,-0.001,-0.002,-0.001,-0.004 C0.042,0.932,0,0.772,0,0.506 C0,0.239,0.043,0.07,0.058,0.018 l0.001,-0.004 L0.06,0.012 l0.001,-0.003,0.001,-0.002,0.001,-0.003,0.001,-0.002,0.437,0.001">
        </path>
    </clipPath>

    <clipPath id="button-curly-braces" clipPathUnits="objectBoundingBox">
        <path
            d="M0.069,0 C0.043,0,0.029,0.026,0.028,0.107 V0.371 c0,0.014,-0.003,0.05,-0.005,0.057 c-0.006,0.029,-0.014,0.043,-0.023,0.043 v0.057 c0.019,0.01,0.028,0.039,0.028,0.086 v0.286 c0,0.067,0.011,0.1,0.032,0.1 h0.875 c0.025,0,0.037,-0.047,0.037,-0.143 V0.6 c0,-0.029,0.009,-0.053,0.028,-0.071 v-0.057 c-0.019,-0.019,-0.028,-0.043,-0.028,-0.071 V0.114 c0,-0.076,-0.014,-0.114,-0.042,-0.114 H0.069">
        </path>
    </clipPath>

    <clipPath id="button-parentheses" clipPathUnits="objectBoundingBox">
        <path
            d="M0.041,0 C0.014,0.148,0,0.314,0,0.5 s0.014,0.352,0.041,0.5 h0.921 c0.025,-0.166,0.038,-0.334,0.038,-0.5 s-0.013,-0.334,-0.038,-0.5 H0.041">
        </path>
    </clipPath>

    <clipPath id="button-greater-than" clipPathUnits="objectBoundingBox">
        <path d="M0.111,0 L0,0.5 l0.111,0.5 h0.778 l0.111,-0.5,-0.111,-0.5"></path>
    </clipPath>

    <clipPath id="curly-brace-left" clipPathUnits="objectBoundingBox">
        <path
            d="M.55.16667V.38889C.56251.43709.46145.482.3.5.46145.518.56251.56291.55.61111V.83333C.55.875.55.93056.85.93056H1V1H.7C.45,1,.3.94444.3.84722V.63889C.3.59722.3.54167,0,.52778V.47222C.3.45833.3.40278.3.36111V.15278C.3.05556.4,0,.7,0H1V.06944H.85C.55.06944.55.125.55.16667Z" />
    </clipPath>
</svg>
