<svg width="2000" height="341" viewBox="0 0 2000 341" fill="none" xmlns="http://www.w3.org/2000/svg">
<path fill-rule="evenodd" clip-rule="evenodd" d="M35.495 315.63C15.8735 315.63 2.39258 306.891 2.39258 289.659V0H224.606V289.659C224.606 306.891 211.128 315.63 191.504 315.63H143.046C142.818 315.63 142.58 315.629 142.333 315.628C135.432 315.603 121.694 315.554 119.405 333.331H107.593C105.305 315.554 91.567 315.603 84.6659 315.628H84.6651L84.4083 315.629L84.2149 315.629L84.1486 315.629L83.9524 315.63H35.495ZM891.324 289.659C891.324 306.891 904.805 315.63 924.426 315.63H972.884C973.112 315.63 973.349 315.629 973.595 315.628H973.596H973.597C980.498 315.603 994.236 315.554 996.525 333.331H1008.34C1010.63 315.554 1024.36 315.603 1031.26 315.628C1031.51 315.629 1031.75 315.63 1031.98 315.63H1080.44C1100.06 315.63 1113.54 306.891 1113.54 289.659V286.42C1113.54 286.42 1151.65 333.333 1223.61 333.333C1295.33 333.333 1335.67 286.42 1335.67 286.42L1335.68 286.186L1446.78 328.395L1557.89 286.185V0H1335.75H1335.67H1113.54H891.324H669.11H446.897H224.683V278.094V286.42C224.683 286.42 262.8 333.333 334.755 333.333C406.476 333.333 446.897 286.42 446.897 286.42L558.003 328.395L669.11 286.185L669.11 328.395H891.324V289.659ZM1557.97 328.395H1780.18V289.749C1780.23 306.922 1793.69 315.63 1813.28 315.63H1861.74C1861.97 315.63 1862.21 315.629 1862.45 315.628C1869.35 315.603 1883.09 315.554 1885.38 333.331H1897.19C1899.48 315.554 1913.22 315.603 1920.12 315.628C1920.37 315.629 1920.6 315.63 1920.83 315.63H1969.29C1988.91 315.63 2002.39 306.891 2002.39 289.659V0H1780.18L1780.18 0.00246914H1557.97V328.395Z" fill="black"/>
<path fill-rule="evenodd" clip-rule="evenodd" d="M59.2598 234.398H89.9412V164.433H153.726V136.569H89.9412V97.3021H167.902V68.9663H59.2598V234.398Z" fill="white"/>
<path fill-rule="evenodd" clip-rule="evenodd" d="M351.283 149.334H306.977V97.0671H333.513C347.967 97.0671 361.945 108.892 361.945 126.391C361.945 138.455 357.68 144.366 351.283 149.334ZM392.7 128.047C392.7 95.4127 366.441 68.9658 333.513 68.9658H276.695V234.398H306.977V177.67H333.278L361.708 234.398H394.834L363.367 173.42C381.582 164.445 392.7 145.074 392.7 128.047Z" fill="white"/>
<path fill-rule="evenodd" clip-rule="evenodd" d="M1684.62 149.334H1640.31V97.0671H1666.85C1681.3 97.0671 1695.28 108.892 1695.28 126.391C1695.28 138.455 1691.01 144.366 1684.62 149.334ZM1726.03 128.047C1726.03 95.4127 1699.77 68.9658 1666.85 68.9658H1610.03V234.398H1640.31V177.67H1666.61L1695.04 234.398H1728.17L1696.7 173.42C1714.92 164.445 1726.03 145.074 1726.03 128.047Z" fill="white"/>
<path fill-rule="evenodd" clip-rule="evenodd" d="M558.025 208.786C531.822 208.786 513.573 182.168 513.573 152.749C513.573 123.331 531.822 96.7116 558.025 96.7116C584.23 96.7116 602.477 123.331 602.477 152.749C602.477 182.168 584.23 208.786 558.025 208.786ZM558.025 67.5635C516.146 67.5635 482.027 105.119 482.027 152.749C482.027 200.146 516.146 237.934 558.025 237.934C600.138 237.934 634.022 200.146 634.022 152.749C634.022 105.119 600.138 67.5635 558.025 67.5635Z" fill="white"/>
<path fill-rule="evenodd" clip-rule="evenodd" d="M940.74 97.3021H987.392V234.398H1017.55V97.3021H1064.2V68.9663H940.74V97.3021Z" fill="white"/>
<path fill-rule="evenodd" clip-rule="evenodd" d="M1887.84 123.112C1879.18 118.208 1876.37 114.006 1876.37 108.403C1876.37 102.099 1882.46 95.0945 1892.06 95.0945C1900.48 95.0945 1907.5 101.865 1910.78 104.899L1936.96 91.1291C1936.96 91.1291 1924.58 67.1118 1892.99 67.1118C1863.99 67.1118 1843.43 87.1661 1843.43 109.571C1843.43 132.218 1857.91 141.791 1872.87 150.196L1900.48 165.606C1912.18 172.144 1919.21 178.448 1919.21 188.02C1919.21 200.628 1907.5 209.035 1895.57 209.035C1881.53 209.035 1869.13 200.164 1858.85 185.687L1831.73 200.164C1836.64 210.201 1853.71 237.482 1891.35 237.482C1924.11 237.482 1950.98 215.097 1950.98 187.551C1950.98 163.27 1937.43 150.662 1915.46 138.522L1887.84 123.112Z" fill="white"/>
<path fill-rule="evenodd" clip-rule="evenodd" d="M813.419 178.151L747.076 68.9653H718.518V234.397H747.076V125.215L813.419 234.397H841.974V68.9653H813.419V178.151Z" fill="white"/>
<path fill-rule="evenodd" clip-rule="evenodd" d="M1201.54 164.432H1265.33V136.567H1201.54V97.3031H1277.14V68.9648H1170.86V234.397H1279.51V206.064H1201.54V164.432Z" fill="white"/>
<path fill-rule="evenodd" clip-rule="evenodd" d="M1423.77 164.432H1487.55V136.567H1423.77V97.3031H1499.36V68.9648H1393.09V234.397H1501.73V206.064H1423.77V164.432Z" fill="white"/>
</svg>
