<svg xmlns="http://www.w3.org/2000/svg" viewBox="0 0 1280 403">
  <defs>
    <clipPath id="b">
      <path fill="none" d="M0-64h256.4v-385.2H0Z" data-name="Path 76" transform="translate(0 449.2)"/>
    </clipPath>
    <clipPath id="c">
      <path fill="none" d="M0-449.2v321.4L.2-114S44-64 127-64c82.8 0 129.4-50 129.4-50v-335.3Z" data-name="Path 78" transform="translate(0 449.2)"/>
    </clipPath>
    <clipPath id="d">
      <path fill="#fe796a" d="M0-63.4h257v-387.1H0Z" data-name="Path 70" transform="translate(0 450.5)"/>
    </clipPath>
    <clipPath id="e">
      <path fill="none" d="M0-64h256.5v-385.8H0Z" data-name="Path 60" transform="translate(0 449.8)"/>
    </clipPath>
    <clipPath id="a">
      <path d="M0 0h1280v403H0z"/>
    </clipPath>
  </defs>
  <g clip-path="url(#a)" data-name="Header component - desktop">
    <path fill="#f2f2f2" d="M0 0h1280v403H0z"/>
    <g data-name="Group 244">
      <g clip-path="url(#b)" data-name="Group 78" transform="translate(-.8 .2)">
        <g data-name="Group 77">
          <path fill="#646ee0" d="M256.4 335.2s-46.6 50-129.4 50c-83 0-126.8-50-126.8-50L0 321.4V0h256.4v335.2Z" data-name="Path 75"/>
        </g>
      </g>
      <g clip-path="url(#c)" data-name="Group 80" transform="translate(-.8 .2)">
        <g data-name="Group 79">
          <path fill="#fd796a" d="M0 0v385.2L256.4 0Z" data-name="Path 77"/>
        </g>
      </g>
    </g>
    <g clip-path="url(#d)" data-name="Group 72" transform="translate(767 .5)">
      <g data-name="Group 70">
        <path fill="#fe796a" d="M0 0v336.5c0 20 15.6 30.1 38.3 30.1h56c7.7 0 24.6-.8 27.3 20.5h13.7c2.7-21.3 19.7-20.5 27.3-20.5h56c22.7 0 38.3-10.1 38.3-30V0Z" data-name="Path 68"/>
      </g>
      <g data-name="Group 71">
        <path fill="#ffce2e" d="M127.8 192.7a63.4 63.4 0 0 0 63.4-63.4A63.4 63.4 0 0 0 127.8 66a63.4 63.4 0 0 0-63.4 63.4 63.4 63.4 0 0 0 63.4 63.4" data-name="Path 69"/>
      </g>
    </g>
    <g data-name="Group 176">
      <g clip-path="url(#e)" data-name="Group 45" transform="translate(511.2 .1)">
        <g data-name="Group 43">
          <path fill="#636ddf" d="M256.5 336s-46.7 49.9-129.4 49.9c-83.1 0-127-50-127-50L0 322V.6h256.5v335.3Z" data-name="Path 58"/>
        </g>
        <g data-name="Group 44">
          <path fill="#ffce2d" d="M0 0v123.4c0 20 15.6 30 38.2 30h56c7.6 0 24.5-.8 27.2 20.5h13.7c2.7-21.3 19.6-20.4 27.3-20.4h55.9c22.6 0 38.2-10.1 38.2-30V0Z" data-name="Path 59"/>
        </g>
      </g>
    </g>
    <g data-name="Group 178">
      <path fill="#b7b7fc" d="M1023.9 387.6H1280V.4h-256.1Z" data-name="Path 63"/>
      <g data-name="Group 50">
        <path fill="#636ddf" d="M1023.9.4v387.2l128-194.2Z" data-name="Path 64"/>
      </g>
      <g data-name="Group 51">
        <path fill="#636ddf" d="m1280 .4-128 193 128 194.2Z" data-name="Path 65"/>
      </g>
    </g>
    <g data-name="Group 199">
      <g data-name="Group 47">
        <path fill="#fd796a" d="M511.4-.4V335L383.9 385V-.4Z" data-name="Path 61"/>
      </g>
      <g data-name="Group 48">
        <path fill="#b7b7fd" d="M384-.4V385L255.5 335V-.4Z" data-name="Path 62"/>
      </g>
    </g>
  </g>
</svg>
