<svg xmlns="http://www.w3.org/2000/svg" width="370" height="63" viewBox="0 0 810 138">
  <g fill="none" fill-rule="evenodd">
    <path fill="#646EE0" d="M631 133h90V0h-90z"/>
    <path fill="#FE796A" d="M361 117.3c0 7 5.5 10.5 13.4 10.5H394c2.7 0 8.6-.3 9.6 7.2h4.8c1-7.5 6.9-7.2 9.6-7.2h19.6c8 0 13.4-3.5 13.4-10.5V0h-90v117.3zM1 117.3c0 7 5.4 10.5 13.4 10.5H34c2.7 0 8.6-.3 9.6 7.2h4.8c1-7.5 6.9-7.2 9.5-7.2h19.7c8 0 13.4-3.5 13.4-10.5V0H1v117.3zM181 116l45 17 45-17.1V0h-90z"/>
    <path fill="#646EE0" d="M91 112.6v3.4s15.4 19 44.6 19c29 0 45.4-19 45.4-19V0H91v112.6z"/>
    <path fill="#FFF" d="M24 94.9h12.4V66.6h25.9V55.3H36.4V39.4H68V27.9H24z"/>
    <path fill="#FE796A" d="M721 117.3c0 7 5.5 10.5 13.4 10.5H754c2.7 0 8.6-.3 9.6 7.2h4.8c1-7.5 6.9-7.2 9.6-7.2h19.6c8 0 13.4-3.5 13.4-10.5V0h-90v117.3z"/>
    <path fill="#FFF" d="M142.3 60.5h-18V39.3h10.8c5.8 0 11.5 4.8 11.5 11.9 0 4.9-1.7 7.3-4.3 9.3m16.7-8.6c0-13.3-10.6-24-24-24h-23v67h12.3V72H135l11.5 23h13.4l-12.7-24.7A21.5 21.5 0 00159 52M682.3 60.5h-18V39.3h10.8c5.8 0 11.5 4.8 11.5 11.9 0 4.9-1.7 7.3-4.3 9.3m16.7-8.6c0-13.3-10.6-24-24-24h-23v67h12.3V72H675l11.5 23h13.4l-12.7-24.7A21.5 21.5 0 00699 52M226 84.6c-10.6 0-18-10.8-18-22.7 0-12 7.4-22.7 18-22.7s18 10.7 18 22.7c0 11.9-7.4 22.7-18 22.7m0-57.2c-17 0-30.8 15.2-30.8 34.5 0 19.2 13.8 34.5 30.8 34.5s30.8-15.3 30.8-34.5c0-19.3-13.7-34.5-30.8-34.5M381 39.4h18.9v55.5h12.2V39.4H431V27.9h-50zM764.6 49.9c-3.5-2-4.7-3.7-4.7-6 0-2.5 2.5-5.4 6.4-5.4 3.4 0 6.2 2.8 7.6 4l10.6-5.6s-5-9.7-17.8-9.7c-11.8 0-20.1 8.1-20.1 17.2s5.9 13 12 16.4l11.1 6.3c4.7 2.6 7.6 5.2 7.6 9 0 5.2-4.8 8.6-9.6 8.6-5.7 0-10.7-3.6-14.9-9.5l-11 5.9c2 4 9 15 24.2 15 13.3 0 24.1-9 24.1-20.1 0-9.9-5.4-15-14.3-19.9l-11.2-6.2z"/>
    <path fill="#646EE0" d="M271 133h90V0h-90z"/>
    <path fill="#FFF" d="M329.4 72.2l-26.8-44.3H291v67h11.6V50.7l26.8 44.2H341v-67h-11.6z"/>
    <path fill="#FE796A" d="M541 115.9l45 17.1 45-17.1V0h-90z"/>
    <path fill="#646EE0" d="M451 112.6v3.4s15.4 19 44.6 19c29 0 45.4-19 45.4-19V0h-90v112.6z"/>
    <path fill="#FFF" d="M486.6 66.6h25.9V55.3h-25.9V39.4h30.6V27.9h-43v67h44V83.5h-31.6zM576.6 66.6h25.9V55.3h-25.9V39.4h30.6V27.9h-43v67h44V83.5h-31.6z"/>
  </g>
</svg>
