<svg xmlns="http://www.w3.org/2000/svg" xmlns:xlink="http://www.w3.org/1999/xlink" width="72" height="72" viewBox="0 0 72 72">
  <defs>
    <clipPath id="clip-Icon_twitter">
      <rect width="72" height="72"/>
    </clipPath>
  </defs>
  <g id="Icon_twitter" clip-path="url(#clip-Icon_twitter)"> 
    <path fill="white" d="M220.931,308.379a15.539,15.539,0,0,1-3.368,4.262A17.5,17.5,0,0,1,215,314.9a2.345,2.345,0,0,0-1.037,2.253c.291,18-11.218,34.924-27.993,40.66a42.427,42.427,0,0,1-36.16-3.467,3.834,3.834,0,0,1-.88-.672,30.776,30.776,0,0,0,21.594-6.266c-6.83-.671-11.4-4.025-13.888-10.418a14.493,14.493,0,0,0,6.307-.266c-7.95-3.423-11.893-8.5-11.451-14.772a16.66,16.66,0,0,0,6.311,1.723c-.029-.458-.453-.545-.71-.759a15.028,15.028,0,0,1-4.116-18.131c.419-.876.649-.988,1.35-.184A42.39,42.39,0,0,0,183.19,319.32c1.208.118,1.084-.454.985-1.238a14.906,14.906,0,0,1,15.547-17.054,14.159,14.159,0,0,1,9.453,4.034,1.624,1.624,0,0,0,1.733.449,32.53,32.53,0,0,0,8.389-3.364,15.365,15.365,0,0,1-6.29,8.145,35.7,35.7,0,0,0,7.888-1.957Z" transform="translate(-148.931 -295.043)"/>
  </g>
</svg>
