<svg xmlns="http://www.w3.org/2000/svg" xmlns:xlink="http://www.w3.org/1999/xlink" width="72" height="72" viewBox="0 0 72 72">
  <defs>
    <clipPath id="clip-Icon_linkedin">
      <rect width="72" height="72"/>
    </clipPath>
  </defs>
  <g id="Icon_linkedin" clip-path="url(#clip-Icon_linkedin)"> 
    <g id="Group_498" data-name="Group 498" transform="translate(229.194 106.229)">
      <path  fill="black"  d="M-211.509,186.065q-4.651,0-9.3,0a7.448,7.448,0,0,1-7.273-6.124,7.42,7.42,0,0,1,5.712-8.512,8.217,8.217,0,0,1,1.79-.185q9.051-.01,18.1,0a7.383,7.383,0,0,1,7.253,5.171,7.121,7.121,0,0,1-2.042,7.684,6.957,6.957,0,0,1-4.9,1.963C-205.286,186.084-208.4,186.065-211.509,186.065Z" transform="translate(0 -258.101)"/>
      <path fill="black"  d="M343.119,463.922c-3.011,0-6.021.005-9.032,0a7.34,7.34,0,0,1-3.69-.891,7.182,7.182,0,0,1-3.91-6.872,7.335,7.335,0,0,1,6.1-6.931,9.284,9.284,0,0,1,1.529-.125q9.149,0,18.3,0a7.4,7.4,0,0,1,1.329,14.684,8.5,8.5,0,0,1-1.6.135Q347.635,463.925,343.119,463.922Z" transform="translate(-517.961 -517.5)"/>
      <path fill="black"  d="M48.423,465.839c0-3.023-.024-6.045.007-9.068a7.224,7.224,0,0,1,4.149-6.8,7.374,7.374,0,0,1,10.521,5.3,8.55,8.55,0,0,1,.128,1.463q0,9.151,0,18.3A7.4,7.4,0,0,1,48.6,476.7a9.578,9.578,0,0,1-.181-1.825c0-.022,0-.044,0-.067Q48.424,470.322,48.423,465.839Z" transform="translate(-258.231 -517.723)"/>
      <path fill="black"  d="M326.623-88.359q0-4.616,0-9.233a7.4,7.4,0,0,1,5.128-7.072,7.4,7.4,0,0,1,9.105,4.3,7.728,7.728,0,0,1,.533,2.834q0,9.166,0,18.331a7.411,7.411,0,0,1-5.246,7.159,7.378,7.378,0,0,1-8.132-2.775,7.313,7.313,0,0,1-1.387-4.342Q326.627-83.759,326.623-88.359Z" transform="translate(-517.954 -0.198)"/>
      <path fill="black"  d="M330.187,725.867h3.346a7.411,7.411,0,0,1,7.294,6.056,7.419,7.419,0,0,1-8.057,8.7,7.381,7.381,0,0,1-6.581-6.636c-.062-.624-.038-1.248-.039-1.871-.006-1.974,0-3.948-.008-5.922,0-.262.065-.337.331-.334C327.711,725.875,328.949,725.867,330.187,725.867Z" transform="translate(-517.506 -775.874)"/>
      <path fill="black"  d="M59.218-90.431H55.939a7.439,7.439,0,0,1-7.339-6.05,7.456,7.456,0,0,1,5.345-8.493,7.417,7.417,0,0,1,9,4.949,7.194,7.194,0,0,1,.342,2.169c0,2.365,0,4.729.005,7.094,0,.255-.054.342-.327.338C61.717-90.44,60.468-90.431,59.218-90.431Z" transform="translate(-258.284 0)"/>
      <path fill="black"  d="M-213.175,453.154q0,1.656,0,3.312a7.446,7.446,0,0,1-6.051,7.336,7.435,7.435,0,0,1-8.491-5.388,7.39,7.39,0,0,1,5.007-8.963,6.935,6.935,0,0,1,2.072-.322c2.375,0,4.751,0,7.126-.008.285,0,.346.082.343.353C-213.183,450.7-213.175,451.927-213.175,453.154Z" transform="translate(-0.222 -517.52)"/>
      <path fill="black"  d="M607.148,186.448c-1.237,0-2.475-.005-3.712,0-.231,0-.328-.029-.326-.3.012-2.419-.03-4.839.016-7.257a7.374,7.374,0,0,1,14.226-2.566,7.4,7.4,0,0,1-6.859,10.116C609.377,186.457,608.262,186.448,607.148,186.448Z" transform="translate(-776.067 -258.502)"/>
    </g>
  </g>
</svg>
