<svg xmlns="http://www.w3.org/2000/svg" viewBox="0 0 72 72">
  <defs>
    <clipPath id="a">
      <path d="M0 0h72v72H0z"/>
    </clipPath>
  </defs>
  <g clip-path="url(#a)">
    <path fill="transparent" d="M0 0h72v72H0z"/>
      <path d="M38.5 31.7a49.4 49.4 0 013.5-3.6 20.6 20.6 0 0112-5.6 16.2 16.2 0 0117.5 12.9A18.1 18.1 0 0172 39v32.2c0 .7-.2.8-.8.8H56.5c-.6 0-.7-.1-.7-.8v-30a3.6 3.6 0 00-.4-1.6c-1.9-3.8-4.7-4.7-8.4-2.7a28.8 28.8 0 00-6.6 5.7 6.8 6.8 0 00-2 5.2c.2 7.8.1 15.6.1 23.4 0 .7-.1.8-.7.8H23.2c-.5 0-.7-.1-.7-.7V23.2c0-.6 0-.7.7-.7h14.7c.5 0 .6.1.6.6v8.6z" fill="white" />
      <path d="M16.1 47.2v24c0 .8 0 .8-.8.8H.7c-.5 0-.7-.1-.7-.7V23.1c0-.5.2-.6.7-.6h14.7c.5 0 .7 0 .7.7v24z" fill="white" />
      <path d="M7.9 0a7.9 7.9 0 017.8 7.8A7.9 7.9 0 018 15.7 7.9 7.9 0 010 7.8 7.9 7.9 0 018 0z" fill="white" />
  </g>
</svg>
