<?xml version="1.0" ?><svg viewBox="0 0 512 512" xmlns="http://www.w3.org/2000/svg"><defs><style>.cls-1{fill:#bebebe;}.cls-2{fill:#dfdfdf;}.cls-3{fill:#a2a2a2;}.cls-4{fill:#f9b7b7;}.cls-5{fill:#0071af;}.cls-6{fill:#d27676;}.cls-7{fill:#ea8383;}.cls-8{fill:#7db6d6;}.cls-9{fill:#5ca4cc;}.cls-10{fill:#00b378;}.cls-11{fill:#bdecdc;}.cls-12{fill:#006095;}.cls-13{fill:#096;}.cls-14{fill:#fda5a3;}.cls-15{fill:#b36565;}.cls-16{fill:#b58585;}.cls-17{fill:#6b9bb6;}</style></defs><title/><g data-name="/ FILLED_OUTLINE" id="_FILLED_OUTLINE"><path class="cls-1" d="M24,280v32a16,16,0,0,0,16,16H368V280Z"/><path class="cls-2" d="M392,24H72A16.00008,16.00008,0,0,0,56,40V280H408V40A16.00008,16.00008,0,0,0,392,24Z"/><path class="cls-1" d="M300.01648,280H408V159.86646A305.36106,305.36106,0,0,1,300.01648,280Z"/><path class="cls-3" d="M136.00031,328H368V280H300.01648A302.5728,302.5728,0,0,1,136.00031,328Z"/><path class="cls-4" d="M342.62939,239.44751A31.99947,31.99947,0,0,0,319.49011,220.669L256,207.9707v-9.49023a26.94766,26.94766,0,0,1,12-22.42212,26.94832,26.94832,0,0,0,12-22.42212V56.05835L216.02917,56A32,32,0,0,0,184,88v65.54858a26.94766,26.94766,0,0,0,12,22.42212,26.94843,26.94843,0,0,1,12,22.42237v9.57763L144.50989,220.669a31.99971,31.99971,0,0,0-23.13935,18.77856L104,280H360Z"/><path class="cls-5" d="M320,168H472a16,16,0,0,0,16-16V72a16,16,0,0,0-16-16H344a16,16,0,0,0-16,16v58.66667a16,16,0,0,1-3.2,9.6L313.6,155.2A8,8,0,0,0,320,168Z"/><path class="cls-6" d="M184,103.97082l96-24V56.05835l-63.98055-.03889a32,32,0,0,0-32.01945,32Z"/><rect class="cls-7" height="16" width="16" x="208" y="119.9707"/><rect class="cls-7" height="16" width="16" x="240" y="119.9707"/><path class="cls-7" d="M232,171.72363a43.80183,43.80183,0,0,1-19.57764-4.59765l7.15528-14.31055a27.91375,27.91375,0,0,0,24.84472,0l7.15528,14.31055A43.80183,43.80183,0,0,1,232,171.72363Z"/><rect class="cls-8" height="16" width="112" x="352" y="88"/><rect class="cls-8" height="16" width="112" x="352" y="120"/><rect class="cls-9" height="16" width="16" x="88" y="64"/><rect class="cls-9" height="16" width="16" x="88" y="104"/><rect class="cls-9" height="16" width="16" x="88" y="144"/><path class="cls-5" d="M319.49011,220.669,256.438,208.05835H256l-12.68634,12.63989a16,16,0,0,1-22.60675-.02051L208,207.9707l-.0011.00025-63.489,12.698a31.99971,31.99971,0,0,0-23.13935,18.77856L104,280H360l-17.37061-40.55249A31.99947,31.99947,0,0,0,319.49011,220.669Z"/><path class="cls-10" d="M213.57779,360H40a16,16,0,0,0-16,16v96a16,16,0,0,0,16,16H152a16,16,0,0,0,16-16V416.56292a16,16,0,0,1,7.1248-13.31281l42.89059-28.59371A8,8,0,0,0,213.57779,360Z"/><rect class="cls-11" height="16" width="64" x="48" y="448"/><rect class="cls-11" height="16" width="96" x="48" y="416"/><rect class="cls-11" height="16" width="96" x="48" y="384"/><path class="cls-12" d="M376.00012,168H472a16.00008,16.00008,0,0,0,16-16V72a15.97586,15.97586,0,0,0-.6051-4.31372A112.01319,112.01319,0,0,1,376.00012,168Z"/><path class="cls-12" d="M300.01648,280H360l-15.073-35.18872A305.0542,305.0542,0,0,1,300.01648,280Z"/><path class="cls-13" d="M168,472V442.90039A80.00094,80.00094,0,0,1,96.00006,488H152A16.00008,16.00008,0,0,0,168,472Z"/><path class="cls-14" d="M417.16724,272H384v48l39.80066-19.90039A14.83282,14.83282,0,0,0,432,286.833h0A14.83268,14.83268,0,0,0,417.16724,272Z"/><path class="cls-14" d="M256,286.833h0a14.83282,14.83282,0,0,0,8.19934,13.2666L304,320V272H270.83276A14.83268,14.83268,0,0,0,256,286.833Z"/><path class="cls-10" d="M464.59839,429.49609a48.00034,48.00034,0,0,0-30.77417-28.14892L376,384H312l-57.82428,17.34717a48.00048,48.00048,0,0,0-30.77417,28.14892L216,448H472Z"/><path class="cls-6" d="M352,208H336a48,48,0,0,0-48,48v48.8042a55.999,55.999,0,0,0,16.402,39.59766l2.91174,2.91162A16.00131,16.00131,0,0,1,312,358.62744V384h64V358.62744a16.00131,16.00131,0,0,1,4.68628-11.314l2.91174-2.91162A55.999,55.999,0,0,0,400,304.8042V256A48,48,0,0,0,352,208Z"/><rect class="cls-4" height="25.37256" width="64" x="312" y="358.62744"/><path class="cls-13" d="M364.811,448H472l-7.40161-18.50391a48.00034,48.00034,0,0,0-30.77417-28.14892l-12.67114-3.80127A281.52228,281.52228,0,0,1,364.811,448Z"/><path class="cls-15" d="M380.68628,347.31348l2.91174-2.91162a55.98683,55.98683,0,0,0,16.37024-38.31836A144.35794,144.35794,0,0,1,312,378.36523V384h64V358.62744A16.00131,16.00131,0,0,1,380.68628,347.31348Z"/><path class="cls-16" d="M312,378.36523V384h64V358.62744H353.62378A143.36953,143.36953,0,0,1,312,378.36523Z"/><path class="cls-1" d="M456,432H232a31.99986,31.99986,0,0,0-32,32v32H488V464A31.99986,31.99986,0,0,0,456,432Z"/><path class="cls-3" d="M456,432H386.179a278.85314,278.85314,0,0,1-178.17865,64H488V464A31.99986,31.99986,0,0,0,456,432Z"/><path class="cls-17" d="M464,136V125.27539A112.60985,112.60985,0,0,1,454.37378,136Z"/><path d="M416,208V176h56a24.0275,24.0275,0,0,0,24-24V72a24.0275,24.0275,0,0,0-24-24H416V40a24.0275,24.0275,0,0,0-24-24H72A24.0275,24.0275,0,0,0,48,40V272H16v40a24.02718,24.02718,0,0,0,24,24H256V320H40a8.00917,8.00917,0,0,1-8-8V288H232V272H116.12976l12.59436-29.40234a23.99293,23.99293,0,0,1,17.35449-14.084l59.29193-11.8584,9.67975,9.67969a24.03453,24.03453,0,0,0,33.90967.03027l9.65991-9.62426,32.06543,6.41284A55.68415,55.68415,0,0,0,280,256v8h-9.167a22.8327,22.8327,0,0,0-10.21143,43.25488l20.65064,10.3252a63.54863,63.54863,0,0,0,17.47339,32.47949l2.91113,2.91113A7.94524,7.94524,0,0,1,304,358.627v19.4209l-52.12256,15.63672a55.70934,55.70934,0,0,0-35.90381,32.84082l-.40857,1.02149A40.04714,40.04714,0,0,0,192,464v32h16V464a24.02718,24.02718,0,0,1,24-24H456a24.02718,24.02718,0,0,1,24,24v32h16V464a40.04719,40.04719,0,0,0-23.5647-36.45312l-.40893-1.02247a55.71065,55.71065,0,0,0-35.90332-32.83984L384,378.04785V358.627a7.9468,7.9468,0,0,1,2.34277-5.65625l2.91211-2.91113a63.55054,63.55054,0,0,0,17.4729-32.47949l20.65113-10.3252A22.83285,22.83285,0,0,0,417.167,264H408v-8a56.06322,56.06322,0,0,0-56-56H336a55.67959,55.67959,0,0,0-31.35986,9.62769L264,201.5v-3.01953a18.9107,18.9107,0,0,1,8.4375-15.76563A34.87834,34.87834,0,0,0,288,153.63574V48.06641L216.03613,48H216a40.0003,40.0003,0,0,0-40,40v65.54883A34.87664,34.87664,0,0,0,191.5625,182.627,18.9107,18.9107,0,0,1,200,198.39258v3.01953l-57.05859,11.41211a39.988,39.988,0,0,0-28.92432,23.47266L98.72382,272H64V40a8.00917,8.00917,0,0,1,8-8H392a8.00917,8.00917,0,0,1,8,8v8H344a24.02718,24.02718,0,0,0-24,24v58.667a8.05238,8.05238,0,0,1-1.6001,4.79981l-11.1997,14.93261A16.00008,16.00008,0,0,0,320,176h80v32ZM280,299.05566l-12.22266-6.11132A6.83278,6.83278,0,0,1,270.833,280H280ZM408,280h9.167a6.83293,6.83293,0,0,1,3.05615,12.94434L408,299.05566Zm23.52588,129.01074A39.77054,39.77054,0,0,1,452.53088,424H235.46942a39.7721,39.7721,0,0,1,21.00519-14.99023L313.17383,392h61.6521ZM296,256a40.04552,40.04552,0,0,1,40-40h16a40.04552,40.04552,0,0,1,40,40v48.80371a47.68537,47.68537,0,0,1-14.05811,33.94141l-2.9121,2.91113A23.84385,23.84385,0,0,0,368,358.627V376H320V358.627a23.84232,23.84232,0,0,0-7.03027-16.9707l-2.91114-2.91113A47.68384,47.68384,0,0,1,296,304.80371ZM192,88a23.99951,23.99951,0,0,1,24-24h.022L272,64.05078v9.67407l-80,20Zm0,65.54883V110.21655l80-20v63.41919a18.91111,18.91111,0,0,1-8.4375,15.7666A34.87665,34.87665,0,0,0,248,198.48047v6.25586l-10.3335,10.29492a8.011,8.011,0,0,1-11.30273-.01074L216,204.65674v-6.26416a34.87665,34.87665,0,0,0-15.5625-29.07813A18.91068,18.91068,0,0,1,192,153.54883ZM320,160l11.19971-14.93359A24.14737,24.14737,0,0,0,336,130.667V72a8.00917,8.00917,0,0,1,8-8H472a8.00917,8.00917,0,0,1,8,8v80a8.00917,8.00917,0,0,1-8,8Z"/><rect height="16" width="16" x="208" y="119.9707"/><rect height="16" width="16" x="240" y="119.9707"/><path d="M212.42236,167.126a43.98142,43.98142,0,0,0,39.15528,0l-7.15528-14.31055a27.91375,27.91375,0,0,1-24.84472,0Z"/><rect height="16" width="112" x="352" y="88"/><rect height="16" width="112" x="352" y="120"/><path d="M228.89111,363.36328A15.908,15.908,0,0,0,213.57764,352H40a24.0275,24.0275,0,0,0-24,24v96a24.0275,24.0275,0,0,0,24,24H152a24.02718,24.02718,0,0,0,24-24V416.5625a7.98486,7.98486,0,0,1,3.5625-6.65625l42.89111-28.59375A15.90818,15.90818,0,0,0,228.89111,363.36328ZM170.687,396.59375A23.95294,23.95294,0,0,0,160,416.5625V472a8.00917,8.00917,0,0,1-8,8H40a8.00917,8.00917,0,0,1-8-8V376a8.00917,8.00917,0,0,1,8-8H213.57812Z"/><rect height="16" width="64" x="48" y="448"/><rect height="16" width="96" x="48" y="416"/><rect height="16" width="96" x="48" y="384"/><rect height="16" width="16" x="88" y="64"/><rect height="16" width="16" x="88" y="104"/><rect height="16" width="16" x="88" y="144"/></g></svg>