<?xml version="1.0" encoding="utf-8"?>
<!-- Generator: Adobe Illustrator 16.0.0, SVG Export Plug-In . SVG Version: 6.00 Build 0)  -->
<!DOCTYPE svg PUBLIC "-//W3C//DTD SVG 1.1//EN" "http://www.w3.org/Graphics/SVG/1.1/DTD/svg11.dtd">
<svg version="1.1" id="Layer_1" xmlns="http://www.w3.org/2000/svg" xmlns:xlink="http://www.w3.org/1999/xlink" x="0px" y="0px"
	 width="565.375px" height="87.5px" viewBox="0 0 565.375 87.5" enable-background="new 0 0 565.375 87.5" xml:space="preserve">
<g>
	<g>
		<defs>
			<rect id="SVGID_1_" x="-16.875" y="-17.64" width="600.37" height="121.89"/>
		</defs>
		<clipPath id="SVGID_2_">
			<use xlink:href="#SVGID_1_"  overflow="visible"/>
		</clipPath>
		<g clip-path="url(#SVGID_2_)">
			<path d="M374.901,25.637h6.596v35.398h-6.596V25.637z"/>
		</g>
	</g>
	<g>
		<defs>
			<rect id="SVGID_3_" x="-16.875" y="-17.64" width="600.37" height="121.89"/>
		</defs>
		<clipPath id="SVGID_4_">
			<use xlink:href="#SVGID_3_"  overflow="visible"/>
		</clipPath>
		<g clip-path="url(#SVGID_4_)">
			<g>
				<defs>
					<rect id="SVGID_5_" x="-16.875" y="-17.64" width="600.37" height="121.89"/>
				</defs>
				<defs>
					<rect id="SVGID_6_" x="-16.875" y="-17.64" width="600.37" height="121.89"/>
				</defs>
				<defs>
					<rect id="SVGID_7_" x="-16.875" y="-17.64" width="600.37" height="121.89"/>
				</defs>
				<defs>
					<rect id="SVGID_8_" x="-16.875" y="-17.64" width="600.37" height="121.89"/>
				</defs>
				<defs>
					<rect id="SVGID_9_" x="-16.875" y="-17.64" width="600.37" height="121.89"/>
				</defs>
				<defs>
					<rect id="SVGID_10_" x="-16.875" y="-17.64" width="600.37" height="121.89"/>
				</defs>
				<defs>
					<rect id="SVGID_11_" x="-16.875" y="-17.64" width="600.37" height="121.89"/>
				</defs>
				<clipPath id="SVGID_12_">
					<use xlink:href="#SVGID_5_"  overflow="visible"/>
				</clipPath>
				<clipPath id="SVGID_13_" clip-path="url(#SVGID_12_)">
					<use xlink:href="#SVGID_6_"  overflow="visible"/>
				</clipPath>
				<clipPath id="SVGID_14_" clip-path="url(#SVGID_13_)">
					<use xlink:href="#SVGID_7_"  overflow="visible"/>
				</clipPath>
				<clipPath id="SVGID_15_" clip-path="url(#SVGID_14_)">
					<use xlink:href="#SVGID_8_"  overflow="visible"/>
				</clipPath>
				<clipPath id="SVGID_16_" clip-path="url(#SVGID_15_)">
					<use xlink:href="#SVGID_9_"  overflow="visible"/>
				</clipPath>
				<clipPath id="SVGID_17_" clip-path="url(#SVGID_16_)">
					<use xlink:href="#SVGID_10_"  overflow="visible"/>
				</clipPath>
				<clipPath id="SVGID_18_" clip-path="url(#SVGID_17_)">
					<use xlink:href="#SVGID_11_"  overflow="visible"/>
				</clipPath>
				<path clip-path="url(#SVGID_18_)" d="M386.398,32.653h6.498v3.492c1.892-2.473,4.85-4.074,8.486-4.074
					c6.982,0,11.25,4.559,11.25,12.124v16.827h-6.645V44.874c0-4.365-2.133-7.128-6.4-7.128c-3.732,0-6.645,2.764-6.645,7.71v15.565
					h-6.545V32.653L386.398,32.653z"/>
				<path clip-path="url(#SVGID_18_)" d="M414.675,32.653h4.851v-4.315l6.595-4.51v8.825h5.771v5.868h-5.771v10.62
					c0,4.945,0.679,5.723,5.771,5.723v6.158h-0.921c-8.776,0-11.444-2.813-11.444-11.832V38.521h-4.85L414.675,32.653
					L414.675,32.653z"/>
				<path clip-path="url(#SVGID_18_)" d="M433.639,46.91c0-8.292,6.448-14.839,14.742-14.839c8.438,0,14.596,6.207,14.596,14.597
					v2.473h-23.082c0.873,3.978,4.073,6.692,8.729,6.692c3.637,0,6.498-1.987,7.855-4.995l5.383,3.104
					c-2.474,4.56-6.936,7.662-13.238,7.662C439.7,61.604,433.639,55.105,433.639,46.91 M440.233,43.661h16.1
					c-0.97-3.782-3.879-5.818-7.952-5.818C444.452,37.843,441.397,40.219,440.233,43.661"/>
				<path clip-path="url(#SVGID_18_)" d="M466.377,32.653h6.498v4.219c1.309-2.813,3.685-4.219,7.273-4.219
					c2.036,0,3.733,0.485,4.994,1.213l-2.474,6.207c-0.97-0.631-2.085-1.115-3.928-1.115c-3.782,0-5.819,2.036-5.819,6.933v15.131
					h-6.546L466.377,32.653L466.377,32.653z"/>
				<path clip-path="url(#SVGID_18_)" d="M487.765,32.653h6.498v3.492c1.892-2.473,4.85-4.074,8.485-4.074
					c6.983,0,11.25,4.559,11.25,12.124v16.827h-6.643V44.874c0-4.365-2.135-7.128-6.402-7.128c-3.732,0-6.644,2.764-6.644,7.71
					v15.565h-6.546L487.765,32.653L487.765,32.653z"/>
				<path clip-path="url(#SVGID_18_)" d="M517.349,46.91c0-8.292,6.448-14.839,14.742-14.839c8.438,0,14.597,6.207,14.597,14.597
					v2.473h-23.082c0.872,3.978,4.072,6.692,8.729,6.692c3.637,0,6.498-1.987,7.855-4.995l5.383,3.104
					c-2.474,4.56-6.936,7.662-13.238,7.662C523.41,61.604,517.349,55.105,517.349,46.91 M523.943,43.661h16.1
					c-0.97-3.782-3.879-5.818-7.952-5.818C528.162,37.843,525.107,40.219,523.943,43.661"/>
				<path clip-path="url(#SVGID_18_)" d="M547.854,32.653h4.85v-4.315l6.596-4.51v8.825h5.771v5.868h-5.771v10.62
					c0,4.945,0.68,5.723,5.771,5.723v6.158h-0.922c-8.776,0-11.444-2.813-11.444-11.832V38.521h-4.849v-5.868H547.854z"/>
			</g>
			<g>
				<defs>
					<rect id="SVGID_19_" x="-16.875" y="-17.64" width="600.37" height="121.89"/>
				</defs>
				<clipPath id="SVGID_20_">
					<use xlink:href="#SVGID_19_"  overflow="visible"/>
				</clipPath>
				<g clip-path="url(#SVGID_20_)">
					<g>
						<defs>
							<rect id="SVGID_21_" x="-16.875" y="-17.64" width="600.37" height="121.89"/>
						</defs>
						<clipPath id="SVGID_22_">
							<use xlink:href="#SVGID_21_"  overflow="visible"/>
						</clipPath>
						<path clip-path="url(#SVGID_22_)" d="M123.727,35.168c-0.161-0.666-0.123-1.371-0.034-1.738
							c0.226-1.053,0.941-2.228,3.027-2.228c1.934,0,3.073,1.202,3.073,3.004v2.047h8.25V33.93c0-7.194-6.487-8.341-11.163-8.341
							c-5.875,0-10.674,1.95-11.553,7.351c-0.24,1.483-0.281,2.786,0.066,4.457c1.432,6.762,13.187,8.716,14.896,12.996
							c0.321,0.795,0.224,1.817,0.065,2.442c-0.272,1.11-1.018,2.233-3.23,2.233c-2.066,0-3.302-1.205-3.302-3.012l-0.012-3.182
							h-8.874v2.527c0,7.395,5.807,9.617,12.023,9.617c5.975,0,10.882-2.035,11.683-7.57c0.397-2.854,0.1-4.711-0.035-5.413
							C137.211,41.096,124.668,39.04,123.727,35.168 M231.285,35.25c-0.148-0.654-0.105-1.347-0.029-1.71
							c0.237-1.059,0.948-2.213,2.997-2.213c1.911,0,3.03,1.19,3.03,2.977v2.023h8.154v-2.305c0-7.126-6.389-8.246-11.014-8.246
							c-5.826,0-10.583,1.921-11.452,7.282c-0.23,1.46-0.287,2.755,0.078,4.408c1.417,6.685,13.056,8.625,14.745,12.853
							c0.299,0.802,0.213,1.822,0.061,2.425c-0.253,1.101-0.993,2.207-3.187,2.207c-2.059,0-3.297-1.183-3.297-2.966l-0.002-3.176
							h-8.777v2.523c0,7.311,5.726,9.518,11.894,9.518c5.907,0,10.785-2.02,11.568-7.49c0.373-2.827,0.092-4.668-0.058-5.361
							C244.628,41.14,232.224,39.078,231.285,35.25 M306.382,53.27l-7.788-26.626h-12.271V59.37h8.119l-0.474-27.479l8.364,27.479
							h11.771V26.643h-8.172L306.382,53.27z M150.343,26.643l-6.126,33.072h8.934l4.617-30.616l4.505,30.616h8.872l-6.101-33.072
							H150.343z M200.298,26.643l-4.173,25.852l-4.169-25.852h-13.493l-0.715,33.072h8.266l0.223-30.616l5.687,30.616h8.386
							l5.693-30.616l0.225,30.616h8.287l-0.74-33.072H200.298z M277.151,26.643h-8.364v24.466c0.012,0.427,0,0.904-0.074,1.257
							c-0.174,0.821-0.871,2.401-3.178,2.401c-2.278,0-2.993-1.58-3.154-2.401c-0.084-0.353-0.094-0.83-0.084-1.257V26.643h-8.362
							V50.35c-0.01,0.611,0.038,1.86,0.074,2.188c0.577,6.178,5.446,8.184,11.526,8.184c6.091,0,10.957-2.006,11.545-8.184
							c0.046-0.326,0.107-1.575,0.071-2.188V26.643z M334.581,41.151v4.824h3.39v4.784c0.012,0.429-0.013,0.89-0.087,1.259
							c-0.134,0.893-0.981,2.412-3.388,2.412c-2.393,0-3.225-1.521-3.37-2.412c-0.06-0.369-0.086-0.83-0.086-1.259V35.645
							c0-0.535,0.036-1.119,0.149-1.562c0.164-0.806,0.879-2.395,3.289-2.395c2.527,0,3.16,1.675,3.306,2.395
							c0.095,0.476,0.1,1.275,0.1,1.275v1.835h8.33v-1.084c0,0,0.037-1.133-0.063-2.189c-0.625-6.204-5.736-8.166-11.6-8.166
							c-5.871,0-10.88,1.98-11.607,8.166c-0.066,0.566-0.168,1.584-0.168,2.189v13.905c0,0.604,0.02,1.074,0.133,2.18
							c0.544,6.033,5.771,8.173,11.621,8.173c5.885,0,11.076-2.14,11.63-8.173c0.098-1.104,0.108-1.574,0.122-2.18v-8.862
							L334.581,41.151L334.581,41.151z"/>
					</g>
					<g>
						<defs>
							<rect id="SVGID_23_" x="-16.875" y="-17.64" width="600.37" height="121.89"/>
						</defs>
						<clipPath id="SVGID_24_">
							<use xlink:href="#SVGID_23_"  overflow="visible"/>
						</clipPath>
						<g clip-path="url(#SVGID_24_)">
							<g>
								<defs>
									<rect id="SVGID_25_" x="-16.875" y="-17.64" width="600.37" height="121.89"/>
								</defs>
								<defs>
									<rect id="SVGID_26_" x="-16.875" y="-17.64" width="600.37" height="121.89"/>
								</defs>
								<defs>
									<rect id="SVGID_27_" x="-16.875" y="-17.64" width="600.37" height="121.89"/>
								</defs>
								<clipPath id="SVGID_28_">
									<use xlink:href="#SVGID_25_"  overflow="visible"/>
								</clipPath>
								<clipPath id="SVGID_29_" clip-path="url(#SVGID_28_)">
									<use xlink:href="#SVGID_26_"  overflow="visible"/>
								</clipPath>
								<clipPath id="SVGID_30_" clip-path="url(#SVGID_29_)">
									<use xlink:href="#SVGID_27_"  overflow="visible"/>
								</clipPath>
								<path clip-path="url(#SVGID_30_)" fill="#7882FF" d="M85.55,31.227c-1.046-7.896-3.841-15.052-8.77-20.293h-0.001
									c-5.24-4.928-12.396-7.723-20.292-8.769C48.945,1.166,43.81,1.413,43.81,1.413s-5.135-0.247-12.677,0.752
									c-7.897,1.046-15.051,3.841-20.292,8.769c-4.928,5.241-7.724,12.397-8.77,20.293c-1,7.542-0.753,12.678-0.753,12.678
									s-0.247,5.134,0.753,12.676c1.046,7.896,3.842,15.052,8.77,20.293c5.241,4.929,12.395,7.724,20.292,8.771
									c7.542,0.998,12.677,0.752,12.677,0.752s5.135,0.246,12.677-0.752c7.896-1.047,15.052-3.842,20.292-8.771h0.001
									c4.929-5.241,7.724-12.397,8.77-20.293c0.999-7.542,0.752-12.676,0.752-12.676S86.549,38.769,85.55,31.227"/>
								<path clip-path="url(#SVGID_30_)" fill="#FFFFFF" d="M65.569,37.608c3.359,12.078-3.708,24.593-15.787,27.953
									C37.705,68.92,25.19,61.852,21.831,49.773c-3.36-12.078,3.709-24.592,15.786-27.952
									C49.695,18.462,62.21,25.53,65.569,37.608"/>
								<g clip-path="url(#SVGID_30_)">
									<g opacity="0.1">
										<g>
											<defs>
												<rect id="SVGID_31_" x="0.694" y="0.786" width="86.232" height="86.235"/>
											</defs>
											<clipPath id="SVGID_32_">
												<use xlink:href="#SVGID_31_"  overflow="visible"/>
											</clipPath>
											<path clip-path="url(#SVGID_32_)" d="M45.386,1.385c2.07,0,6.045,0.11,11.101,0.78
												c7.897,1.046,15.052,3.841,20.292,8.768h0.002c4.928,5.242,7.723,12.398,8.769,20.293
												c0.999,7.542,0.753,12.677,0.753,12.677s0.246,5.136-0.753,12.678c-1.046,7.896-3.841,15.052-8.769,20.293h-0.002
												c-5.24,4.929-12.395,7.724-20.292,8.771c-5.052,0.668-9.023,0.779-11.095,0.779c-1.021,0-1.582-0.027-1.582-0.027
												s-0.56,0.027-1.581,0.027c-2.072,0-6.045-0.111-11.096-0.779c-7.897-1.047-15.051-3.842-20.292-8.771
												c-4.928-5.241-7.724-12.397-8.769-20.293c-1-7.542-0.754-12.678-0.754-12.678s-0.246-5.135,0.754-12.677
												c1.045-7.895,3.841-15.051,8.769-20.293c5.241-4.927,12.395-7.722,20.292-8.768c5.057-0.67,9.031-0.78,11.102-0.78
												c1.017,0,1.575,0.026,1.575,0.026S44.368,1.385,45.386,1.385 M45.386,0.785L45.386,0.785
												c-0.905,0-1.447,0.021-1.576,0.026c-0.128-0.005-0.671-0.026-1.575-0.026c-1.962,0-6.022,0.103-11.181,0.786
												c-8.476,1.123-15.607,4.209-20.623,8.927l-0.014,0.013l-0.012,0.012C5.687,15.541,2.6,22.673,1.478,31.148
												c-0.957,7.219-0.777,12.327-0.759,12.755c-0.018,0.43-0.198,5.537,0.759,12.757c1.122,8.475,4.209,15.605,8.926,20.624
												l0.013,0.014l0.014,0.013c5.016,4.717,12.147,7.805,20.623,8.928c5.155,0.683,9.214,0.785,11.175,0.785
												c0.907,0,1.453-0.021,1.581-0.026c0.129,0.006,0.674,0.026,1.582,0.026c1.96,0,6.019-0.104,11.173-0.785
												c8.442-1.118,15.549-4.186,20.56-8.866l0.017-0.009l0.075-0.078c4.716-5.018,7.804-12.148,8.926-20.624
												c0.957-7.222,0.776-12.328,0.759-12.757c0.017-0.427,0.198-5.535-0.759-12.755c-1.122-8.476-4.21-15.608-8.926-20.625
												l-0.178-0.188h-0.025c-5.004-4.626-12.07-7.655-20.45-8.765C51.407,0.888,47.346,0.785,45.386,0.785"/>
										</g>
									</g>
									<g>
										<defs>
											<rect id="SVGID_33_" x="-16.875" y="-17.64" width="600.37" height="121.89"/>
										</defs>
										<defs>
											<rect id="SVGID_34_" x="-16.875" y="-17.64" width="600.37" height="121.89"/>
										</defs>
										<defs>
											<rect id="SVGID_35_" x="-16.875" y="-17.64" width="600.37" height="121.89"/>
										</defs>
										<defs>
											<rect id="SVGID_36_" x="-16.875" y="-17.64" width="600.37" height="121.89"/>
										</defs>
										<clipPath id="SVGID_37_">
											<use xlink:href="#SVGID_33_"  overflow="visible"/>
										</clipPath>
										<clipPath id="SVGID_38_" clip-path="url(#SVGID_37_)">
											<use xlink:href="#SVGID_34_"  overflow="visible"/>
										</clipPath>
										<clipPath id="SVGID_39_" clip-path="url(#SVGID_38_)">
											<use xlink:href="#SVGID_35_"  overflow="visible"/>
										</clipPath>
										<clipPath id="SVGID_40_" clip-path="url(#SVGID_39_)">
											<use xlink:href="#SVGID_36_"  overflow="visible"/>
										</clipPath>
										<path clip-path="url(#SVGID_40_)" fill="#FFFFFF" d="M65.569,37.608c1.26,4.529,1.053,9.121-0.334,13.266
											c-0.112,0.336-0.231,0.667-0.359,0.995"/>
										<path clip-path="url(#SVGID_40_)" fill="#FFFFFF" d="M65.218,37.608c0.883,3.175,1.045,6.381,0.586,9.442"/>
										<path clip-path="url(#SVGID_40_)" fill="#4D5CC1" d="M58.886,59.632h-0.003c-5.737-0.001-12.731-1.458-19.693-4.104
											c-6.962-2.645-13.158-6.198-17.448-10.008c-6.972-6.192-6.54-10.991-5.663-13.3c0.878-2.31,3.742-6.184,13.063-6.184
											h0.003c5.737,0.001,12.731,1.458,19.693,4.105c6.962,2.645,13.158,6.199,17.448,10.009c6.972,6.191,6.54,10.99,5.663,13.3
											C71.071,55.758,68.207,59.632,58.886,59.632 M29.142,33.222c-4.307,0-6.16,1.064-6.345,1.55
											c-0.184,0.485,0.495,2.512,3.717,5.373c3.601,3.198,9.151,6.356,15.229,8.666c6.078,2.311,12.325,3.635,17.141,3.637
											h0.002c4.307,0,6.16-1.065,6.345-1.551c0.184-0.485-0.495-2.514-3.716-5.373c-3.602-3.198-9.152-6.356-15.23-8.667
											c-6.078-2.31-12.325-3.634-17.141-3.635H29.142L29.142,33.222z"/>
										<path clip-path="url(#SVGID_40_)" fill="#FFFFFF" d="M22.798,34.852l42.405,16.111c1.414-4.17,1.635-8.793,0.366-13.354
											c-3.36-12.078-15.874-19.146-27.952-15.786C30.682,23.75,25.404,28.702,22.798,34.852"/>
									</g>
								</g>
							</g>
						</g>
					</g>
				</g>
			</g>
		</g>
	</g>
</g>
</svg>
