<svg width="219" height="80" xmlns="http://www.w3.org/2000/svg" xmlns:xlink="http://www.w3.org/1999/xlink"><defs><path id="a" d="M0 80h218.268V.812H0z"/></defs><g fill="none" fill-rule="evenodd"><g transform="translate(0 -.813)"><path d="M16.338 50.831c0-5.759-2.542-8.637-7.627-8.637H5.684v17.457h2.44c5.475 0 8.214-2.94 8.214-8.82m5.905-.147c0 4.414-1.256 7.794-3.769 10.14-2.512 2.348-6.139 3.521-10.882 3.521H0V37.536h8.417c4.376 0 7.775 1.156 10.195 3.466 2.42 2.311 3.631 5.538 3.631 9.682m22.043 13.662h-15.44v-26.81h15.44v4.659h-9.755v5.887h8.623v4.657h-8.623v6.913h9.755zm8.754 0v-26.81h5.684v22.116h9.665v4.694z" fill="#001A71"/><mask id="b" fill="#fff"><use xlink:href="#a"/></mask><path fill="#001A71" mask="url(#b)" d="M75.285 64.345h5.684V37.536h-5.684zm51.575.001h-3.119V51.73h-14.118v12.616h-3.118v-26.81h3.118v11.407h14.118V37.537h3.118zm10.762-13.441c0 3.63.773 6.383 2.319 8.26 1.546 1.877 3.792 2.815 6.738 2.815 2.972 0 5.215-.935 6.73-2.805 1.516-1.87 2.274-4.628 2.274-8.27 0-3.606-.754-6.34-2.264-8.205-1.51-1.865-3.744-2.798-6.703-2.798-2.97 0-5.23.94-6.775 2.814-1.546 1.877-2.32 4.607-2.32 8.19m21.362 0c0 4.288-1.085 7.664-3.255 10.12-2.17 2.457-5.185 3.685-9.05 3.685-3.947 0-6.994-1.206-9.14-3.62-2.144-2.415-3.216-5.823-3.216-10.224 0-4.364 1.075-7.745 3.226-10.149 2.15-2.402 5.208-3.602 9.168-3.602 3.85 0 6.858 1.222 9.022 3.666 2.164 2.446 3.245 5.82 3.245 10.123m19.722 13.441L169.61 40.58h-.148c.17 1.883.259 4.12.259 6.712v17.053h-2.88v-26.81h4.694l8.49 22.116h.145l8.564-22.115h4.658v26.809h-3.118V47.072c0-1.98.086-4.131.257-6.453h-.147l-9.167 23.727h-2.513z"/></g><path fill="#001A71" d="M203.323 36.724v26.809h14.945v-2.787H206.44V50.88h10.657v-2.75H206.44v-8.637h11.827v-2.77z"/><path d="M84.73 79.187H7.758a1.866 1.866 0 110-3.734H84.73c4.249 0 7.976-3.503 7.976-7.496V30.928c0-4.614 2.889-8.82 7.19-10.478L146.42.74a11.209 11.209 0 018.134.048l57.248 23.776a1.867 1.867 0 11-1.43 3.45l-57.22-23.766a7.463 7.463 0 00-5.371-.03l-46.518 19.707a7.536 7.536 0 00-4.824 7.003v37.03c0 6.086-5.362 11.23-11.71 11.23" fill="#938E8B"/></g></svg>