<?xml version="1.0" encoding="UTF-8"?>
<svg xmlns="http://www.w3.org/2000/svg">
    <clipPath id="curly-brace-down-large" clipPathUnits="objectBoundingBox">
        <path d="M1,0.004 H0.001 v0.283 C0.001,0.563,0.071,0.718,0.157,0.718 h0.214 c0.029,0,0.073,0.023,0.083,0.285 h0.094 C0.558,0.75,0.6,0.722,0.629,0.718 h0.216 c0.087,0,0.156,-0.155,0.156,-0.433"></path>
    </clipPath>

    <clipPath id="greater-than-open-tiny" clipPathUnits="objectBoundingBox">
        <path d="M1,0.999 V0 L0,0.495 L1,1"></path>
    </clipPath> 
    <clipPath id="greater-than-close-tiny" clipPathUnits="objectBoundingBox">
        <path d="M0,0 V1 L1,0.505,0,0"></path>
    </clipPath>
    <clipPath id="curly-brace-open-tiny" clipPathUnits="objectBoundingBox">
        <path d="M1,0 C0.634,0,0.407,0.07,0.407,0.158 L0.407,0.373 C0.407,0.403,0.375,0.447,0,0.457 L0,0.551 C0.375,0.561,0.407,0.605,0.407,0.636 L0.407,0.85 C0.407,0.938,0.634,1,1,1 L1,0"></path>
    </clipPath>
    <clipPath id="curly-brace-close-tiny" clipPathUnits="objectBoundingBox">
        <path d="M0.015,0.004 C0.401,0.004,0.619,0.074,0.619,0.16 v0.214 c0,0.029,0.034,0.073,0.396,0.083 v0.094 c-0.361,0.01,-0.396,0.054,-0.396,0.083 v0.214 c0,0.086,-0.219,0.156,-0.603,0.156 V0.004"></path>
    </clipPath>
    <clipPath id="parentheses-open-tiny" clipPathUnits="objectBoundingBox">
        <path d="M1,1 V0.001 S0,0.169,0,0.496 c0,0.327,1,0.505,1,0.505"></path>
    </clipPath>
    <clipPath id="parentheses-close-tiny" clipPathUnits="objectBoundingBox">
        <path d="M0.026,0.001 v1 S1,0.833,1,0.506 C1,0.18,0.026,0.001,0.026,0.001"></path>
    </clipPath>

    <clipPath id="curly-brace-right-small" clipPathUnits="objectBoundingBox">
    <path d="M0,1 V0.004 h0.806 C0.881,0.004,0.923,0.074,0.923,0.16 v0.214 c0,0.029,0.007,0.073,0.077,0.083 v0.094 c-0.07,0.01,-0.077,0.054,-0.077,0.083 v0.214 c0,0.086,-0.042,0.156,-0.117,0.156 H0"></path>
    </clipPath>
    <clipPath id="greater-than-right-small" clipPathUnits="objectBoundingBox">
        <path d="M0.873,0.005 C0.287,0,-0.003,0,0,0.006 C0.006,0.015,0,0.244,0,0.506 v0.494 l0.873,0.002 L1,0.508,0.873,0.005"></path>
    </clipPath>
    <clipPath id="parenthesis-right-small" clipPathUnits="objectBoundingBox">
        <path d="M0.873,0.005 C0.287,0,-0.003,0,0,0.006 C0.006,0.015,0,0.244,0,0.506 v0.494 l0.873,0.002 s0.127,-0.167,0.127,-0.493 c0,-0.325,-0.127,-0.503,-0.127,-0.503"></path>
    </clipPath>


    <clipPath id="parentheses-down-small" clipPathUnits="objectBoundingBox">
    <path d="M13.4981119,274.077987 C189.252263,275.480145 276.580479,275.408235 275.48276,273.862255 C273.836181,271.543286 275.48276,214.320106 275.48276,148.965013 C275.48276,147.851011 275.48276,106.691693 275.48276,25.4870582 L13.4981119,25.0783036 C13.4981119,25.0783036 -24.5070202,66.8223681 -24.5070202,148.357558 C-24.5070202,229.648631 13.4981119,274.077987 13.4981119,274.077987 Z" fill="#000000" fill-rule="nonzero" transform="translate(125.492980, 150.078304) rotate(270.000000) translate(-125.492980, -150.078304) "></path>
    </clipPath>
    <clipPath id="greater-than-down-small" clipPathUnits="objectBoundingBox">
    <path d="M283.498112,274.077987 C459.252263,275.480145 546.580479,275.408235 545.48276,273.862255 C543.836181,271.543286 545.48276,214.320106 545.48276,148.965013 C545.48276,147.851011 545.48276,106.691693 545.48276,25.4870582 L283.498112,25.0783036 C283.498112,25.0783036 270.829735,66.1713885 245.49298,148.357558 C270.829735,232.171177 283.498112,274.077987 283.498112,274.077987 Z" fill="#000000" fill-rule="nonzero" transform="translate(395.492980, 150.078304) rotate(270.000000) translate(-395.492980, -150.078304) "></path>
    </clipPath>

</svg>
