<?xml version="1.0" encoding="UTF-8"?>
<svg xmlns="http://www.w3.org/2000/svg" class="visually-hidden" hidden>
    <clipPath id="curly-brace-down-large" clipPathUnits="objectBoundingBox">
        <path d="M1,0.004 H0.001 v0.283 C0.001,0.563,0.071,0.718,0.157,0.718 h0.214 c0.029,0,0.073,0.023,0.083,0.285 h0.094 C0.558,0.75,0.6,0.722,0.629,0.718 h0.216 c0.087,0,0.156,-0.155,0.156,-0.433"></path>
    </clipPath>

    <clipPath id="greater-than-open-tiny" clipPathUnits="objectBoundingBox">
        <path d="M1,0.999 V0 L0,0.495 L1,1"></path>
    </clipPath> 
    <clipPath id="greater-than-close-tiny" clipPathUnits="objectBoundingBox">
        <path d="M0,0 V1 L1,0.505,0,0"></path>
    </clipPath>
    <clipPath id="curly-brace-open-tiny" clipPathUnits="objectBoundingBox">
        <path d="M1,0 C0.634,0,0.407,0.07,0.407,0.158 L0.407,0.373 C0.407,0.403,0.375,0.447,0,0.457 L0,0.551 C0.375,0.561,0.407,0.605,0.407,0.636 L0.407,0.85 C0.407,0.938,0.634,1,1,1 L1,0"></path>
    </clipPath>
    <clipPath id="curly-brace-close-tiny" clipPathUnits="objectBoundingBox">
        <path d="M0.015,0.004 C0.401,0.004,0.619,0.074,0.619,0.16 v0.214 c0,0.029,0.034,0.073,0.396,0.083 v0.094 c-0.361,0.01,-0.396,0.054,-0.396,0.083 v0.214 c0,0.086,-0.219,0.156,-0.603,0.156 V0.004"></path>
    </clipPath>
    <clipPath id="parenthesis-open-tiny" clipPathUnits="objectBoundingBox">
        <path d="M1,1 V0.001 S0,0.169,0,0.496 c0,0.327,1,0.505,1,0.505"></path>
    </clipPath>
    <clipPath id="parenthesis-close-tiny" clipPathUnits="objectBoundingBox">
        <path d="M0.026,0.001 v1 S1,0.833,1,0.506 C1,0.18,0.026,0.001,0.026,0.001"></path>
    </clipPath>

    <clipPath id="curly-brace-right-small" clipPathUnits="objectBoundingBox">
        <path d="M0,1 V0.004 h0.806 C0.881,0.004,0.923,0.074,0.923,0.16 v0.214 c0,0.029,0.007,0.073,0.077,0.083 v0.094 c-0.07,0.01,-0.077,0.054,-0.077,0.083 v0.214 c0,0.086,-0.042,0.156,-0.117,0.156 H0"></path>
    </clipPath>
    <clipPath id="greater-than-right-small" clipPathUnits="objectBoundingBox">
        <path d="M0.873,0.005 C0.287,0,-0.003,0,0,0.006 C0.006,0.015,0,0.244,0,0.506 v0.494 l0.873,0.002 L1,0.508,0.873,0.005"></path>
    </clipPath>
    <clipPath id="parenthesis-right-small" clipPathUnits="objectBoundingBox">
        <path d="M0.873,0.005 C0.287,0,-0.003,0,0,0.006 C0.006,0.015,0,0.244,0,0.506 v0.494 l0.873,0.002 s0.127,-0.167,0.127,-0.493 c0,-0.325,-0.127,-0.503,-0.127,-0.503"></path>
    </clipPath>


    <clipPath id="parenthesis-down-small" clipPathUnits="objectBoundingBox">
        <path d="M0.998,0.873 c0.006,-0.586,0.005,-0.877,-0.001,-0.873 c-0.009,0.006,-0.238,0,-0.5,0 H0.004 L0.002,0.873 s0.167,0.127,0.493,0.127 c0.325,0,0.503,-0.127,0.503,-0.127"></path>
    </clipPath>
    <clipPath id="greater-than-down-small" clipPathUnits="objectBoundingBox">
        <path d="M0.998,0.873 c0.006,-0.586,0.005,-0.877,-0.001,-0.873 c-0.009,0.006,-0.238,0,-0.5,0 H0.004 L0.002,0.873 l0.493,0.127,0.503,-0.127"></path>
    </clipPath>
    <clipPath id="curly-brace-down-small" clipPathUnits="objectBoundingBox">
        <path d="M0.003,0 h1 v0.806 c0,0.075,-0.07,0.117,-0.156,0.117 h-0.214 c-0.029,0,-0.073,0.006,-0.084,0.077 h-0.094 c-0.01,-0.07,-0.054,-0.077,-0.083,-0.077 H0.16 c-0.086,0,-0.156,-0.042,-0.156,-0.117 V0"></path>
    </clipPath>
</svg>
