<?xml version="1.0" encoding="utf-8"?>
<!-- Generator: Adobe Illustrator 23.0.6, SVG Export Plug-In . SVG Version: 6.00 Build 0)  -->
<svg version="1.1" id="Layer_1" xmlns="http://www.w3.org/2000/svg" xmlns:xlink="http://www.w3.org/1999/xlink" x="0px" y="0px"
	 viewBox="0 0 141.2 24" style="enable-background:new 0 0 141.2 24;" xml:space="preserve">
<g>
	<path d="M46.6,5.1c1.5,0,2.7-1.1,2.7-2.5S48.1,0,46.6,0c-1.5,0-2.7,1.1-2.7,2.5S45.1,5.1,46.6,5.1z"/>
	<path d="M44.6,8.6V23c0,0.8,1.1,1,2.1,1s2.1-0.2,2.1-1V8.6c0-1-1.1-1.2-2.1-1.2C45.6,7.4,44.6,7.5,44.6,8.6z"/>
	<path d="M53.4,1.2V23c0,0.8,1.1,1,2.1,1c1.1,0,2.1-0.2,2.1-1V1.2c0-1-1.1-1.2-2.1-1.2C54.5,0,53.4,0.1,53.4,1.2z"/>
	<path d="M23.2,15.4c0-4.5,3.6-8.6,8.9-8.6c5.2,0,9,4,9,8.6c0,4.9-4.1,8.6-8.9,8.6C26.9,24,23.2,19.9,23.2,15.4z M32.1,20.5
		c2.8,0,4.9-2.3,4.9-5.1s-2.1-5-4.9-5s-4.9,2.3-4.9,5.1S29.3,20.5,32.1,20.5z"/>
	<path d="M20.8,19.6c0,2.2-5.2,4.4-8.7,4.4c-4.4,0-8.5-2.3-10.6-6.1c-1-1.8-1.5-3.7-1.5-5.7c0-2.3,0.7-4.6,2-6.6C3,4,5,1.8,8.4,0.7
		C9.3,0.4,10.9,0,12.6,0c4.9,0,8.1,3.4,8.1,6.5c0,2.1-1.7,5-5.8,5c-1.9,0-2.5-0.8-2.5-1.7c0-1.2,1.1-2.7,2-2.7
		c0.4,0,0.6,0.3,1.2,0.3c0.7-0.1,1-0.5,1-1.1c0-1-1.2-2.4-3.9-2.4c-0.8,0-1.8,0.1-3,0.5C7.4,5,6.1,6.7,5.4,7.8
		c-0.9,1.3-1.3,2.9-1.3,4.4c0,1.3,0.3,2.6,1,3.8c1.4,2.5,4.1,4,7,4c4,0,5.2-2.2,6-2.5C19.5,16.8,20.8,18.5,20.8,19.6z"/>
</g>
</svg>
